<?xml version="1.0" encoding="utf-8"?>
<!-- Generator: Adobe Illustrator 18.0.0, SVG Export Plug-In . SVG Version: 6.00 Build 0)  -->
<!DOCTYPE svg PUBLIC "-//W3C//DTD SVG 1.1//EN" "http://www.w3.org/Graphics/SVG/1.1/DTD/svg11.dtd">
<svg version="1.1" id="Capa_1" xmlns="http://www.w3.org/2000/svg" xmlns:xlink="http://www.w3.org/1999/xlink" x="0px" y="0px"
	 viewBox="0 0 141.7 141.7" enable-background="new 0 0 141.7 141.7" xml:space="preserve">
<g>
	<path d="M139.9,19.6c-0.2-1.3-0.9-2.4-2-3.1c-1.1-0.7-2.4-1-3.7-0.7c0,0,0,0,0,0c-2.5,0.5-4.1,2.8-3.7,5.3
		c-8.6,3.6-17.6,6.4-26.8,8.3c-7.8,1.7-15.8,2.7-23.7,3.1c-0.5-1.8-2.1-3.1-4.1-3.1h-7.5c-2,0-3.7,1.4-4.1,3.4H41.6
		c-0.4-1.9-2.1-3.4-4.1-3.4H30c-2.1,0-3.8,1.5-4.2,3.5L8.3,34.1c-0.2-0.8-0.9-1.3-1.7-1.3h-5c-0.9,0-1.7,0.8-1.7,1.7v10.7
		c0,0.9,0.8,1.7,1.7,1.7h5c0.8,0,1.5-0.6,1.7-1.3l17.4,1.2V105v9.3c0,0.9,0.8,1.7,1.7,1.7s1.7-0.8,1.7-1.7v-6.8l1.7,0.7v8.1
		c0,0.9,0.8,1.7,1.7,1.7s1.7-0.8,1.7-1.7v-6.8l1.7,0.7v8.1c0,0.9,0.8,1.7,1.7,1.7s1.7-0.8,1.7-1.7v-6.8l1.7,0.7v8.1
		c0,0.9,0.8,1.7,1.7,1.7s1.7-0.8,1.7-1.7v-6.8l1.7,0.7v8.1c0,0.9,0.8,1.7,1.7,1.7s1.7-0.8,1.7-1.7v-6.8l1.7,0.7v8.1
		c0,0.9,0.8,1.7,1.7,1.7c0.9,0,1.7-0.8,1.7-1.7v-8.1l1.7-0.7v6.8c0,0.9,0.8,1.7,1.7,1.7s1.7-0.8,1.7-1.7v-8.1l1.7-0.7v6.8
		c0,0.9,0.8,1.7,1.7,1.7s1.7-0.8,1.7-1.7v-8.1l1.7-0.7v6.8c0,0.9,0.8,1.7,1.7,1.7c0.9,0,1.7-0.8,1.7-1.7v-8.1l1.7-0.7v6.8
		c0,0.9,0.8,1.7,1.7,1.7c0.9,0,1.7-0.8,1.7-1.7v-8.1l1.7-0.7v6.8c0,0.9,0.8,1.7,1.7,1.7c0.9,0,1.7-0.8,1.7-1.7V105V47.2
		c17.4,1,34.3,4.8,50.4,11.5c-0.3,2.5,1.3,4.8,3.7,5.3c0,0,0,0,0,0l0.4-1.7l-0.3,1.7c0,0,0,0,0,0c0.3,0.1,0.7,0.1,1,0.1
		c0.9,0,1.9-0.3,2.7-0.8c1.1-0.7,1.8-1.8,2-3.1C142.3,46.7,142.3,33.1,139.9,19.6z M131,55.2c-1.9-0.8-3.8-1.5-5.7-2.2
		c1-8.7,1-17.5,0-26.2c1.9-0.7,3.8-1.4,5.7-2.2C132.5,34.7,132.5,45,131,55.2z M104.4,32.8c6-1.3,11.9-2.9,17.7-4.9
		c0.9,7.9,0.9,16,0,23.9c-11-3.7-22.3-6.2-33.9-7.4v-9C93.6,34.8,99,33.9,104.4,32.8z M41.7,46.9h22.4v2c0,6.2-5,11.2-11.2,11.2
		c-6.2,0-11.2-5-11.2-11.2L41.7,46.9L41.7,46.9z M41.7,43.5v-7.3h9.5v7.3H41.7z M64.2,43.5h-9.5v-7.3h9.5V43.5z M30,32.8h7.5
		c0.5,0,0.8,0.4,0.8,0.8V49c0,8.1,6.6,14.6,14.6,14.6C61,63.6,67.6,57,67.6,49V33.7c0-0.5,0.4-0.8,0.8-0.8h7.5
		c0.5,0,0.8,0.4,0.8,0.8v60.7l-23.8,9.3l-23.8-9.3V33.7C29.2,33.2,29.6,32.8,30,32.8z M3.4,36.2H5v7.3H3.4V36.2z M8.4,37.5l12.1-0.8
		V43L8.4,42.2V37.5z M23.9,43.3v-6.8l1.9-0.1v7.1L23.9,43.3z M29.2,98l23.1,9c0.2,0.1,0.4,0.1,0.6,0.1c0.2,0,0.4,0,0.6-0.1l23.1-9
		v5.9l-23.8,9.3l-23.8-9.3V98z M80.1,36c1.5-0.1,3.1-0.2,4.6-0.3v8.4c-1.5-0.1-3.1-0.2-4.6-0.3V36z M136.6,59.5
		c-0.1,0.4-0.3,0.7-0.6,0.9c-0.3,0.2-0.7,0.3-1,0.2l-0.1,0c-0.7-0.1-1.2-0.8-1-1.6c2.3-12.7,2.3-25.6,0-38.2
		c-0.1-0.7,0.3-1.4,1.1-1.6l0,0c0.4-0.1,0.7,0,1,0.2c0.3,0.2,0.5,0.5,0.6,0.9C138.9,33.3,138.9,46.5,136.6,59.5z"/>
</g>
</svg>
