<?xml version="1.0" encoding="iso-8859-1"?>
<!-- Generator: Adobe Illustrator 18.0.0, SVG Export Plug-In . SVG Version: 6.00 Build 0)  -->
<!DOCTYPE svg PUBLIC "-//W3C//DTD SVG 1.1//EN" "http://www.w3.org/Graphics/SVG/1.1/DTD/svg11.dtd">
<svg version="1.1" id="Capa_1" xmlns="http://www.w3.org/2000/svg" xmlns:xlink="http://www.w3.org/1999/xlink" x="0px" y="0px"
	 viewBox="0 0 462.024 462.024" style="enable-background:new 0 0 462.024 462.024;" xml:space="preserve">
<g>
	<path d="M362.258,88.482c1.239-1.045,1.955-2.584,1.955-4.205V28.318c0-2.14-1.241-4.085-3.182-4.987
		c-1.94-0.902-4.228-0.597-5.864,0.782l-19.07,16.079l-19.07-16.079c-1.636-1.378-3.923-1.684-5.864-0.782
		c-1.94,0.902-3.182,2.848-3.182,4.987v55.959c0,1.621,0.715,3.16,1.955,4.205l20.657,17.417v75.09
		c-14.472-20.376-33.185-37.534-54.836-50.194V95.525l20.658-17.418c1.239-1.045,1.955-2.583,1.955-4.205V17.944
		c0-2.14-1.241-4.085-3.182-4.987c-1.941-0.902-4.228-0.597-5.864,0.783l-19.07,16.08l-19.07-16.08
		c-1.636-1.379-3.923-1.685-5.864-0.783c-1.94,0.902-3.182,2.848-3.182,4.987v55.959c0,1.621,0.715,3.16,1.955,4.205l20.664,17.424
		v29.349c-16.934-8.343-35.395-14.042-54.847-16.534V83.084l20.661-17.42c1.239-1.045,1.955-2.583,1.955-4.205V5.5
		c0-2.14-1.241-4.085-3.182-4.987c-1.94-0.902-4.227-0.597-5.864,0.783l-19.07,16.079L185.339,1.295
		c-1.635-1.378-3.924-1.684-5.864-0.782c-1.94,0.902-3.182,2.848-3.182,4.987v55.959c0,1.621,0.715,3.16,1.955,4.205l20.661,17.42
		v24.217c-3.773-0.244-7.575-0.381-11.409-0.381c-3.038,0-5.5,2.462-5.5,5.5v45.522c0,6.118-4.978,11.096-11.096,11.096
		s-11.096-4.978-11.096-11.096V131.04c0-17.093-13.906-30.999-30.999-30.999s-30.999,13.906-30.999,30.999v152.799
		c0,26.244,21.351,47.594,47.595,47.594c20.178,0,36.594,16.417,36.594,36.595v3.545c0,49.875,40.576,90.451,90.451,90.451
		s90.451-40.576,90.451-90.451v-89.252c0-30.302-7.726-58.833-21.309-83.73v-92.685L362.258,88.482z M287.369,71.346l-11.616,9.794
		V39.569l11.616-9.794V71.346z M253.138,29.775l11.615,9.794V81.14l-11.615-9.794V29.775z M221.524,58.902l-11.615,9.793V27.125
		l11.615-9.793V58.902z M187.293,17.332l11.616,9.793v41.571l-11.616-9.793V17.332z M145.406,320.434
		c-20.178,0-36.595-16.416-36.595-36.594V131.04c0-11.027,8.972-19.999,19.999-19.999s19.999,8.971,19.999,19.999v26.902
		c0,12.184,9.912,22.096,22.096,22.096c4.043,0,7.832-1.097,11.096-3v160.597C173.263,327.133,160.103,320.434,145.406,320.434z
		 M351.901,371.573c0,43.809-35.642,79.451-79.451,79.451S193,415.382,193,371.573V118.011
		c88.113,2.914,158.901,75.501,158.901,164.31V371.573z M353.213,81.72l-11.616,9.793V49.943l11.616-9.793V81.72z M318.981,40.149
		l11.616,9.793v41.571l-11.616-9.793V40.149z"/>
	<path d="M211.88,132.376c-1.592-0.257-3.216,0.196-4.444,1.241c-1.228,1.045-1.936,2.576-1.936,4.188v233.768
		c0,36.916,30.034,66.95,66.95,66.95s66.95-30.034,66.95-66.95v-89.252c0-36.246-13.027-71.365-36.681-98.888
		C279.322,156.209,247.062,138.076,211.88,132.376z M294.377,190.603c5.277,6.141,9.978,12.692,14.084,19.564l-91.96,142.716
		V144.422C246.633,150.762,274.091,166.999,294.377,190.603z M328.4,371.573c0,30.851-25.099,55.95-55.95,55.95
		c-30.328,0-55.08-24.261-55.91-54.392l97.878-151.9c9.128,18.929,13.982,39.799,13.982,61.09V371.573z"/>
	<path d="M253.147,238.776c12.288,0,22.285-9.997,22.285-22.286s-9.997-22.286-22.285-22.286c-12.289,0-22.286,9.997-22.286,22.286
		S240.859,238.776,253.147,238.776z M253.147,205.205c6.223,0,11.285,5.063,11.285,11.286s-5.063,11.286-11.285,11.286
		c-6.223,0-11.286-5.063-11.286-11.286S246.924,205.205,253.147,205.205z"/>
	<path d="M291.754,325.132c-12.289,0-22.286,9.997-22.286,22.285c0,12.289,9.997,22.286,22.286,22.286s22.286-9.997,22.286-22.286
		C314.04,335.129,304.043,325.132,291.754,325.132z M291.754,358.703c-6.223,0-11.286-5.063-11.286-11.286
		c0-6.223,5.063-11.285,11.286-11.285s11.286,5.063,11.286,11.285C303.04,353.641,297.977,358.703,291.754,358.703z"/>
</g>
<g>
</g>
<g>
</g>
<g>
</g>
<g>
</g>
<g>
</g>
<g>
</g>
<g>
</g>
<g>
</g>
<g>
</g>
<g>
</g>
<g>
</g>
<g>
</g>
<g>
</g>
<g>
</g>
<g>
</g>
</svg>
